<?xml version="1.0" standalone="no"?>
<!DOCTYPE svg PUBLIC "-//W3C//DTD SVG 20010904//EN"
 "http://www.w3.org/TR/2001/REC-SVG-20010904/DTD/svg10.dtd">
<svg version="1.0" xmlns="http://www.w3.org/2000/svg"
 width="310.000000pt" height="105.000000pt" viewBox="0 0 310.000000 105.000000"
 preserveAspectRatio="xMidYMid meet">

<g transform="translate(0.000000,105.000000) scale(0.100000,-0.100000)"
fill="#000000" stroke="none">
<path d="M265 880 c-104 -65 -191 -126 -193 -135 -5 -21 16 -45 39 -45 16 0
19 -8 19 -60 0 -52 -3 -61 -25 -76 -17 -11 -25 -25 -25 -45 0 -24 4 -29 25
-29 24 0 25 -2 25 -64 0 -57 -3 -65 -26 -80 -33 -22 -31 -69 3 -74 20 -3 23
-9 23 -47 0 -35 -4 -45 -20 -50 -14 -4 -20 -15 -20 -36 l0 -31 33 20 c17 11
106 64 196 117 l164 96 226 -85 c124 -46 234 -88 244 -92 16 -6 18 -2 15 21
-3 27 -12 31 -185 94 l-183 66 0 57 0 58 -60 17 c-57 17 -60 19 -60 51 0 17 2
32 4 32 2 0 48 -16 101 -35 54 -20 100 -34 102 -31 2 2 -15 10 -39 18 l-43 15
-5 74 -5 74 -57 20 c-55 18 -58 21 -58 52 l0 33 53 -20 c28 -11 54 -20 57 -20
3 0 3 35 0 77 l-5 78 -52 15 c-50 14 -53 17 -53 47 0 18 2 33 5 33 2 0 48 -16
100 -36 53 -20 98 -34 101 -31 6 6 -196 77 -216 76 -8 0 -100 -53 -205 -119z
m203 79 c-3 -33 -24 -47 -291 -193 -83 -45 -88 -46 -85 -25 2 17 46 49 183
135 99 61 184 112 188 113 5 1 7 -13 5 -30z m86 -79 c24 -9 26 -15 26 -65 0
-30 -4 -55 -8 -55 -5 0 -29 7 -54 16 l-46 15 -148 -91 c-82 -51 -157 -96 -166
-101 -16 -9 -18 -4 -18 44 l0 54 183 96 c100 53 187 96 194 96 6 1 23 -3 37
-9z m-84 -139 c0 -27 -11 -35 -184 -130 -101 -56 -187 -101 -190 -101 -3 0 -6
8 -6 18 0 11 59 53 183 129 100 62 185 113 190 113 4 0 7 -13 7 -29z m87 -77
c18 -5 22 -15 25 -62 2 -32 3 -58 2 -60 -1 -2 -27 4 -57 14 l-54 17 -159 -98
c-87 -54 -163 -100 -167 -102 -4 -3 -7 21 -5 52 l3 56 180 94 c182 95 193 99
232 89z m-87 -137 c0 -33 -3 -35 -185 -135 -101 -56 -187 -102 -190 -102 -3 0
-5 8 -5 18 0 12 59 54 188 134 103 64 188 117 190 117 1 1 2 -14 2 -32z m117
-87 c6 0 3 -77 -3 -83 -3 -3 -30 4 -59 15 l-53 20 -161 -96 c-89 -53 -164 -96
-167 -96 -3 0 -4 14 -2 31 3 34 13 40 257 164 109 55 128 62 155 54 17 -5 32
-9 33 -9z"/>
<path d="M1155 941 c-35 -15 -57 -49 -62 -95 -8 -68 3 -93 67 -160 32 -34 64
-75 70 -91 14 -38 5 -77 -18 -73 -13 2 -18 15 -20 51 l-3 47 -51 0 -50 0 4
-66 c4 -60 7 -70 36 -95 27 -25 41 -29 88 -29 76 0 109 32 119 114 10 79 -10
127 -85 201 -63 62 -79 105 -40 105 15 0 20 -7 20 -25 0 -23 3 -25 50 -25 l50
0 0 40 c0 60 -41 101 -106 106 -27 2 -58 0 -69 -5z"/>
<path d="M1450 725 c0 -235 5 -260 55 -283 33 -15 97 -15 130 0 50 23 55 48
55 283 l0 215 -44 0 -45 0 -3 -200 c-2 -142 -7 -203 -15 -212 -31 -30 -38 8
-41 212 l-3 200 -45 0 -44 0 0 -215z"/>
<path d="M1810 684 l0 -255 48 3 47 3 0 168 c0 92 3 160 7 150 4 -10 17 -79
28 -153 29 -182 23 -170 76 -170 24 0 44 3 44 8 1 4 14 81 29 172 l29 165 1
-172 1 -173 45 0 45 0 0 255 0 255 -78 0 -79 0 -18 -140 c-10 -78 -20 -139
-22 -136 -4 3 -42 245 -43 269 0 4 -36 7 -80 7 l-80 0 0 -256z"/>
<path d="M2366 873 c-3 -38 -13 -138 -21 -223 -8 -85 -15 -170 -15 -187 0 -32
1 -33 44 -33 46 0 56 9 56 56 0 20 5 24 30 24 27 0 30 -4 36 -40 6 -40 7 -40
50 -40 l44 0 0 38 c0 20 -9 127 -20 237 -11 110 -20 208 -20 218 0 15 -11 17
-89 17 l-88 0 -7 -67z m109 -170 c7 -102 7 -103 -15 -103 -23 0 -23 2 -17 83
4 45 7 100 8 122 1 72 16 8 24 -102z"/>
<path d="M2710 686 l0 -256 50 0 50 0 1 113 1 112 21 -110 22 -110 53 -3 52
-3 0 255 0 256 -50 0 -50 0 -1 -112 c0 -62 -3 -108 -5 -103 -2 6 -12 55 -22
110 l-18 100 -52 3 -52 3 0 -255z"/>
<path d="M725 906 c17 -7 41 -16 55 -20 20 -5 19 -3 -5 8 -16 7 -41 16 -55 20
-20 5 -19 3 5 -8z"/>
<path d="M810 877 c0 -7 121 -49 126 -44 3 3 -19 13 -48 22 -29 10 -59 20 -65
23 -7 2 -13 2 -13 -1z"/>
<path d="M610 737 c9 -10 231 -89 236 -84 4 3 -71 32 -226 85 -8 3 -13 2 -10
-1z"/>
<path d="M860 647 c0 -3 20 -12 45 -20 45 -16 65 -14 23 2 -43 16 -68 22 -68
18z"/>
<path d="M725 475 c50 -21 83 -26 40 -6 -22 11 -47 19 -55 19 -8 0 -1 -5 15
-13z"/>
<path d="M812 445 c2 -3 38 -16 79 -30 40 -14 69 -21 64 -17 -10 9 -126 52
-140 52 -5 0 -6 -2 -3 -5z"/>
<path d="M1580 331 c-31 -9 -49 -53 -30 -76 7 -8 33 -20 57 -27 25 -6 47 -17
50 -25 13 -35 -52 -57 -98 -33 -12 7 -19 7 -19 1 0 -30 82 -41 118 -15 42 29
19 74 -47 91 -78 20 -57 81 24 68 25 -4 36 -2 30 3 -15 14 -57 20 -85 13z"/>
<path d="M2643 333 c-12 -2 -33 -16 -47 -30 -57 -57 -14 -163 66 -163 38 1 86
24 70 34 -6 3 -13 2 -17 -4 -12 -20 -80 -11 -103 13 -60 64 8 159 91 128 16
-6 27 -7 27 -1 0 17 -49 30 -87 23z"/>
<path d="M1110 235 c0 -57 4 -95 10 -95 6 0 10 14 10 30 0 28 2 30 39 30 34 0
43 -5 58 -30 9 -16 21 -30 25 -30 12 0 10 10 -11 39 -19 27 -19 27 0 39 25 16
26 73 1 95 -13 12 -37 17 -75 17 l-57 0 0 -95z m104 75 c20 -7 26 -17 26 -38
0 -39 -17 -52 -67 -52 l-43 0 0 43 c0 24 3 47 7 50 9 10 48 8 77 -3z"/>
<path d="M1340 235 l0 -95 70 0 c40 0 70 4 70 10 0 6 -27 10 -60 10 l-60 0 0
35 0 35 50 0 c28 0 50 5 50 10 0 6 -22 10 -50 10 l-50 0 0 35 0 34 58 4 57 3
-67 2 -68 2 0 -95z"/>
<path d="M1750 235 c0 -57 4 -95 10 -95 6 0 10 38 10 95 0 57 -4 95 -10 95 -6
0 -10 -38 -10 -95z"/>
<path d="M1860 234 l0 -96 65 4 c50 3 70 9 89 27 30 29 38 67 21 108 -18 42
-42 53 -114 53 l-61 0 0 -96z m120 73 c31 -15 54 -60 45 -87 -13 -40 -46 -60
-97 -60 l-48 0 0 73 c0 41 3 77 7 80 11 11 66 8 93 -6z"/>
<path d="M2120 235 l0 -95 71 0 c44 0 68 4 64 10 -3 6 -31 10 -61 10 l-54 0 0
35 0 35 50 0 c28 0 50 5 50 10 0 6 -22 10 -50 10 l-50 0 0 35 0 34 58 4 57 3
-67 2 -68 2 0 -95z"/>
<path d="M2330 235 c0 -114 18 -129 22 -18 l3 77 60 -76 c33 -43 63 -77 68
-78 4 0 7 43 7 95 0 111 -18 130 -22 24 l-3 -72 -55 71 c-30 39 -61 71 -67 72
-10 0 -13 -25 -13 -95z"/>
<path d="M2810 235 l0 -95 70 0 c40 0 70 4 70 10 0 6 -27 10 -60 10 l-60 0 0
35 0 35 50 0 c28 0 50 5 50 10 0 6 -22 10 -50 10 l-50 0 0 35 0 34 58 4 57 3
-67 2 -68 2 0 -95z"/>
</g>
</svg>
